<mxfile host="Electron" modified="2024-07-23T10:09:08.404Z" agent="Mozilla/5.0 (X11; Linux x86_64) AppleWebKit/537.36 (KHTML, like Gecko) draw.io/24.5.3 Chrome/124.0.6367.207 Electron/30.0.6 Safari/537.36" etag="y7mU91kiplURmU4AqgjN" version="24.5.3" type="device">
  <diagram name="Page-1" id="JJqJoNlHZnesHc7m2yyh">
    <mxGraphModel dx="1384" dy="843" grid="1" gridSize="10" guides="1" tooltips="1" connect="1" arrows="1" fold="1" page="1" pageScale="1" pageWidth="850" pageHeight="1100" math="0" shadow="0">
      <root>
        <mxCell id="0" />
        <mxCell id="1" parent="0" />
        <mxCell id="hLLxq-qQcLcrGTvXi8nj-1" value="" style="curved=1;endArrow=classic;html=1;rounded=0;" edge="1" parent="1">
          <mxGeometry width="50" height="50" relative="1" as="geometry">
            <mxPoint x="200" y="560" as="sourcePoint" />
            <mxPoint x="470" y="330" as="targetPoint" />
            <Array as="points">
              <mxPoint x="260" y="450" />
              <mxPoint x="320" y="360" />
              <mxPoint x="400" y="410" />
            </Array>
          </mxGeometry>
        </mxCell>
        <mxCell id="hLLxq-qQcLcrGTvXi8nj-2" value="" style="curved=1;endArrow=classic;html=1;rounded=0;" edge="1" parent="1" source="hLLxq-qQcLcrGTvXi8nj-11">
          <mxGeometry width="50" height="50" relative="1" as="geometry">
            <mxPoint x="200" y="560" as="sourcePoint" />
            <mxPoint x="410" y="270" as="targetPoint" />
            <Array as="points">
              <mxPoint x="320" y="320" />
              <mxPoint x="400" y="370" />
            </Array>
          </mxGeometry>
        </mxCell>
        <mxCell id="hLLxq-qQcLcrGTvXi8nj-4" value="" style="endArrow=classic;html=1;rounded=0;" edge="1" parent="1" target="hLLxq-qQcLcrGTvXi8nj-5">
          <mxGeometry width="50" height="50" relative="1" as="geometry">
            <mxPoint x="200" y="560" as="sourcePoint" />
            <mxPoint x="200" y="240" as="targetPoint" />
          </mxGeometry>
        </mxCell>
        <mxCell id="hLLxq-qQcLcrGTvXi8nj-5" value="State" style="text;html=1;align=center;verticalAlign=middle;whiteSpace=wrap;rounded=0;fontStyle=1" vertex="1" parent="1">
          <mxGeometry x="170" y="225" width="60" height="30" as="geometry" />
        </mxCell>
        <mxCell id="hLLxq-qQcLcrGTvXi8nj-7" value="" style="endArrow=classic;html=1;rounded=0;" edge="1" parent="1" source="hLLxq-qQcLcrGTvXi8nj-9">
          <mxGeometry width="50" height="50" relative="1" as="geometry">
            <mxPoint x="200" y="560" as="sourcePoint" />
            <mxPoint x="480" y="560" as="targetPoint" />
          </mxGeometry>
        </mxCell>
        <mxCell id="hLLxq-qQcLcrGTvXi8nj-8" value="Time" style="text;html=1;align=center;verticalAlign=middle;whiteSpace=wrap;rounded=0;fontStyle=1" vertex="1" parent="1">
          <mxGeometry x="477" y="546" width="60" height="30" as="geometry" />
        </mxCell>
        <mxCell id="hLLxq-qQcLcrGTvXi8nj-10" value="" style="endArrow=classic;html=1;rounded=0;" edge="1" parent="1" target="hLLxq-qQcLcrGTvXi8nj-9">
          <mxGeometry width="50" height="50" relative="1" as="geometry">
            <mxPoint x="200" y="560" as="sourcePoint" />
            <mxPoint x="480" y="560" as="targetPoint" />
          </mxGeometry>
        </mxCell>
        <mxCell id="hLLxq-qQcLcrGTvXi8nj-13" value="" style="curved=1;endArrow=none;html=1;rounded=0;endFill=0;" edge="1" parent="1" target="hLLxq-qQcLcrGTvXi8nj-11">
          <mxGeometry width="50" height="50" relative="1" as="geometry">
            <mxPoint x="200" y="560" as="sourcePoint" />
            <mxPoint x="410" y="270" as="targetPoint" />
            <Array as="points" />
          </mxGeometry>
        </mxCell>
        <mxCell id="hLLxq-qQcLcrGTvXi8nj-11" value="" style="ellipse;whiteSpace=wrap;html=1;aspect=fixed;labelPosition=right;verticalLabelPosition=middle;align=left;verticalAlign=middle;" vertex="1" parent="1">
          <mxGeometry x="240" y="460" width="20" height="20" as="geometry" />
        </mxCell>
        <mxCell id="hLLxq-qQcLcrGTvXi8nj-9" value="Same Initial state" style="ellipse;whiteSpace=wrap;html=1;aspect=fixed;labelPosition=center;verticalLabelPosition=bottom;align=center;verticalAlign=top;" vertex="1" parent="1">
          <mxGeometry x="190" y="551" width="20" height="20" as="geometry" />
        </mxCell>
        <mxCell id="hLLxq-qQcLcrGTvXi8nj-14" value="Same action, different reactions" style="text;html=1;align=center;verticalAlign=middle;whiteSpace=wrap;rounded=0;" vertex="1" parent="1">
          <mxGeometry x="260" y="455" width="190" height="30" as="geometry" />
        </mxCell>
        <mxCell id="hLLxq-qQcLcrGTvXi8nj-15" value="p (s&lt;sub&gt;t+1&lt;/sub&gt;&amp;nbsp;| s&lt;sub&gt;t&lt;/sub&gt;, a&lt;sub&gt;t&lt;/sub&gt;)" style="text;html=1;align=center;verticalAlign=middle;whiteSpace=wrap;rounded=0;" vertex="1" parent="1">
          <mxGeometry x="365" y="240" width="95" height="30" as="geometry" />
        </mxCell>
        <mxCell id="hLLxq-qQcLcrGTvXi8nj-16" value="pÌ‚ (s&lt;sub&gt;t+1&lt;/sub&gt;&amp;nbsp;| s&lt;sub&gt;t&lt;/sub&gt;, a&lt;sub&gt;t&lt;/sub&gt;)" style="text;html=1;align=center;verticalAlign=middle;whiteSpace=wrap;rounded=0;" vertex="1" parent="1">
          <mxGeometry x="442" y="300" width="95" height="30" as="geometry" />
        </mxCell>
      </root>
    </mxGraphModel>
  </diagram>
</mxfile>
